<?xml version="1.0" encoding="UTF-8" standalone="no"?>
<!DOCTYPE svg PUBLIC "-//W3C//DTD SVG 1.1//EN" "http://www.w3.org/Graphics/SVG/1.1/DTD/svg11.dtd">
<!-- Generated by Microsoft Visio, SVG Export diagram.svg appetizer-all -->
<svg xmlns="http://www.w3.org/2000/svg" xmlns:xlink="http://www.w3.org/1999/xlink" xmlns:ev="http://www.w3.org/2001/xml-events"
		width="16.8785in" height="6.83507in" viewBox="0 0 1215.25 492.125" xml:space="preserve" color-interpolation-filters="sRGB"
		class="st35">
	<style type="text/css">
	<![CDATA[
		.st1 {fill:#f2f2f2;stroke:#595959;stroke-linecap:round;stroke-linejoin:round;stroke-width:0.5}
		.st2 {visibility:visible}
		.st3 {fill:#7f7f7f;fill-opacity:0.4;filter:url(#filter_5.3333334922791);stroke:#7f7f7f;stroke-linecap:round;stroke-linejoin:round;stroke-opacity:0.4}
		.st4 {fill:#f2f2f2;stroke:#7f7f7f;stroke-linecap:round;stroke-linejoin:round;stroke-width:1.75}
		.st5 {fill:#ffe0b3;stroke:#e68a00;stroke-linecap:round;stroke-linejoin:round;stroke-width:2}
		.st6 {fill:#a86a33;font-family:Russo One;font-size:1.99999em}
		.st7 {fill:#ddecff;stroke:#3f3f3f;stroke-linecap:round;stroke-linejoin:round;stroke-width:2}
		.st8 {fill:#595959;font-family:Russo One;font-size:3em}
		.st9 {font-size:1em}
		.st10 {fill:#ffe1ea;stroke:#595959;stroke-linecap:round;stroke-linejoin:round;stroke-width:3.25}
		.st11 {fill:none;stroke:none;stroke-linecap:round;stroke-linejoin:round;stroke-width:0.5}
		.st12 {fill:#595959;font-family:Russo One;font-size:1.99999em}
		.st13 {fill:#0273fb;stroke:none;stroke-linecap:butt;stroke-width:1.50369}
		.st14 {fill:none;stroke:#158aff;stroke-linecap:butt;stroke-width:3.38029}
		.st15 {fill:#6140b5;fill-opacity:0.98;stroke:none;stroke-linecap:butt;stroke-width:1.50369}
		.st16 {fill:none;stroke:#664dc4;stroke-linecap:butt;stroke-opacity:0.98;stroke-width:3.38029}
		.st17 {fill:#ff0d49;fill-opacity:0.98;stroke:none;stroke-linecap:butt;stroke-width:1.50369}
		.st18 {fill:none;stroke:#fc2d81;stroke-linecap:butt;stroke-opacity:0.98;stroke-width:3.38029}
		.st19 {fill:#ffffff;stroke:none;stroke-linecap:butt;stroke-width:1.50369}
		.st20 {fill:#feb990;stroke:#ac4201;stroke-dasharray:6,6;stroke-linecap:round;stroke-linejoin:round;stroke-width:2}
		.st21 {fill:#ffffff;stroke:#bfbfbf;stroke-linecap:round;stroke-linejoin:round;stroke-width:0.75}
		.st22 {fill:none;stroke:none;stroke-linecap:round;stroke-linejoin:round;stroke-width:1.75}
		.st23 {fill:#595959;font-family:Open Sans;font-size:3em;font-weight:bold}
		.st24 {stroke:#595959;stroke-linecap:round;stroke-linejoin:round;stroke-width:12}
		.st25 {fill:#f2f2f2;stroke:#595959;stroke-linecap:round;stroke-linejoin:round;stroke-width:3}
		.st26 {fill:url(#grad0-66);stroke:none;stroke-linecap:butt;stroke-width:2.04}
		.st27 {fill:#ddecff;stroke:#0068f9;stroke-dasharray:6,6;stroke-linecap:round;stroke-linejoin:round;stroke-width:2}
		.st28 {fill:url(#grad0-81);stroke:none;stroke-linecap:butt;stroke-width:2.04}
		.st29 {fill:url(#grad0-85);stroke:none;stroke-linecap:butt;stroke-width:2.04}
		.st30 {fill:url(#grad0-89);stroke:none;stroke-linecap:butt;stroke-width:2.04}
		.st31 {fill:url(#grad0-93);stroke:none;stroke-linecap:butt;stroke-width:2.04}
		.st32 {fill:url(#grad0-108);stroke:none;stroke-linecap:butt;stroke-width:2.04}
		.st33 {fill:#ffffff;marker-end:url(#mrkr42-127);stroke:#595959;stroke-linecap:round;stroke-linejoin:round;stroke-width:5}
		.st34 {fill:#595959;fill-opacity:1;stroke:#595959;stroke-opacity:1;stroke-width:0.66489361702128}
		.st35 {fill:none;fill-rule:evenodd;font-size:12px;overflow:visible;stroke-linecap:square;stroke-miterlimit:3}
	]]>
	</style>

	<defs id="Patterns_And_Gradients">
		<linearGradient id="grad0-66" x1="0" y1="0" x2="1" y2="0" gradientTransform="rotate(50 0.5 0.5)">
			<stop offset="0.23" stop-color="#fc0147" stop-opacity="1"/>
			<stop offset="0.86" stop-color="#0068f9" stop-opacity="1"/>
		</linearGradient>
		<linearGradient id="grad0-81" x1="0" y1="0" x2="1" y2="0" gradientTransform="rotate(-118.14215319877 0.5 0.5)">
			<stop offset="0.005" stop-color="#fc0147" stop-opacity="1"/>
			<stop offset="0.04" stop-color="#f4044d" stop-opacity="1"/>
			<stop offset="0.9" stop-color="#0068f9" stop-opacity="1"/>
		</linearGradient>
		<linearGradient id="grad0-85" x1="0" y1="0" x2="1" y2="0" gradientTransform="rotate(-135 0.5 0.5)">
			<stop offset="0.005" stop-color="#fc0147" stop-opacity="1"/>
			<stop offset="0.04" stop-color="#f4044d" stop-opacity="1"/>
			<stop offset="0.9" stop-color="#0068f9" stop-opacity="1"/>
		</linearGradient>
		<linearGradient id="grad0-89" x1="0" y1="0" x2="1" y2="0" gradientTransform="rotate(-112.38354531203 0.5 0.5)">
			<stop offset="0.005" stop-color="#fc0147" stop-opacity="1"/>
			<stop offset="0.04" stop-color="#f4044d" stop-opacity="1"/>
			<stop offset="0.9" stop-color="#0068f9" stop-opacity="1"/>
		</linearGradient>
		<linearGradient id="grad0-93" x1="0" y1="0" x2="1" y2="0" gradientTransform="rotate(-112.40744476367 0.5 0.5)">
			<stop offset="0.005" stop-color="#fc0147" stop-opacity="1"/>
			<stop offset="0.04" stop-color="#f4044d" stop-opacity="1"/>
			<stop offset="0.9" stop-color="#0068f9" stop-opacity="1"/>
		</linearGradient>
		<linearGradient id="grad0-108" x1="0" y1="0" x2="1" y2="0" gradientTransform="rotate(50 0.5 0.5)">
			<stop offset="0.34" stop-color="#0068f9" stop-opacity="1"/>
			<stop offset="0.86" stop-color="#fc0147" stop-opacity="1"/>
		</linearGradient>
	</defs>
	<defs id="Markers">
		<g id="lend42">
			<path
					d="M 0 0.75 C -0.414214 0.75 -0.75 0.414214 -0.75 0 -0.75 -0.414214 -0.414214 -0.75 0 -0.75 0.414214 -0.75 0.75 -0.414214 0.75 0 0.75 0.414214 0.414214 0.75 0 0.75 Z "
					style="stroke:none"/>
		</g>
		<marker id="mrkr42-127" class="st34" refX="-1.128" orient="auto" markerUnits="strokeWidth" overflow="visible">
			<use xlink:href="#lend42" transform="scale(-1.504,-1.504) "/>
		</marker>
	</defs>
	<defs id="Filters">
		<filter id="filter_5.3333334922791">
			<feGaussianBlur stdDeviation="5.3333334922791"/>
		</filter>
	</defs>
	<g>
		<title>5255</title>
		<g id="shape2873-1" transform="translate(0.25,-0.25)">
			<title>Rounded Rectangle.245</title>
			<path d="M0 492.12 L1214.75 492.12 L1214.75 0.5 L0 0.5 L0 492.12 Z" class="st1"/>
		</g>
		<g id="shape2874-3" transform="translate(265.136,-59.2523)">
			<title>Sheet.2874</title>
			<g id="shadow2874-4" transform="matrix(1.06,0,0,1.06,-22.2892,-18.8007)" class="st2">
				<path d="M217.83 242.89 C209.52 240.54 200.75 239.14 191.53 239.14 C141.18 239.14 99.59 277.82 91.94 328.47 L91.94
							 328.47 L75.53 328.47 L75.53 328.47 C33.95 328.47 0 363.87 0 407.48 L0 407.48 L0 413.11 L0 413.11 C-0
							 456.72 33.95 492.12 75.53 492.12 L75.53 492.12 L667.44 492.12 L667.44 492.12 C709.03 492.12 742.97 456.72
							 742.97 413.11 L742.97 413.11 L742.97 407.48 L742.97 407.48 C742.97 363.87 709.03 328.47 667.44 328.47
							 L667.44 328.47 L664.52 328.47 L664.52 328.47 C651.48 281.57 610.34 247.11 561.33 247.11 C539.98 247.11
							 520.19 253.91 503.56 265.16 C492.54 191.31 431.85 134.56 358.34 134.56 C292.24 134.56 236.49 180.05
							 217.83 242.89 Z" class="st3"/>
			</g>
			<path d="M217.83 242.89 C209.52 240.54 200.75 239.14 191.53 239.14 C141.18 239.14 99.59 277.82 91.94 328.47 L91.94 328.47
						 L75.53 328.47 L75.53 328.47 C33.95 328.47 0 363.87 0 407.48 L0 407.48 L0 413.11 L0 413.11 C-0 456.72 33.95
						 492.12 75.53 492.12 L75.53 492.12 L667.44 492.12 L667.44 492.12 C709.03 492.12 742.97 456.72 742.97 413.11
						 L742.97 413.11 L742.97 407.48 L742.97 407.48 C742.97 363.87 709.03 328.47 667.44 328.47 L667.44 328.47 L664.52
						 328.47 L664.52 328.47 C651.48 281.57 610.34 247.11 561.33 247.11 C539.98 247.11 520.19 253.91 503.56 265.16
						 C492.54 191.31 431.85 134.56 358.34 134.56 C292.24 134.56 236.49 180.05 217.83 242.89 Z" class="st4"/>
		</g>
		<g id="shape3471-8" transform="translate(864,-9.88483)">
			<title>Rounded Rectangle.3109</title>
			<desc>Cloud Vendor VM</desc>
			<path d="M9 492.12 L333 492.12 A8.99985 8.99985 -180 0 0 342 483.12 L342 30.38 A8.99985 8.99985 -180 0 0 333 21.38 L9
						 21.38 A8.99985 8.99985 -180 0 0 0 30.38 L0 483.12 A8.99985 8.99985 -180 0 0 9 492.12 Z" class="st5"/>
			<text x="9.2" y="482.93" class="st6">Cloud Vendor VM</text>		</g>
		<g id="shape2875-11" transform="translate(10.2497,-60.625)">
			<title>Rounded Rectangle</title>
			<desc>Clint Local</desc>
			<path d="M16.29 492.12 L252.48 492.12 A16.289 16.289 -180 0 0 268.77 475.84 L268.77 211.41 A16.289 16.289 -180 0 0 252.48
						 195.12 L16.29 195.12 A16.289 16.289 -180 0 0 0 211.41 L0 475.84 A16.289 16.289 -180 0 0 16.29 492.12 Z"
					class="st7"/>
			<text x="92.09" y="231.53" class="st8">Clint <tspan x="85.25" dy="1.2em" class="st9">Local</tspan></text>		</g>
		<g id="group2966-15" transform="translate(28.2497,-87.625)">
			<title>Sheet.2966</title>
			<g id="group2967-16" transform="translate(11.5024,5.68434E-14)">
				<title>Sheet.2967</title>
				<g id="shape2968-17" transform="translate(1.8705E-12,-105.73)">
					<title>Sheet.2968</title>
					<path d="M0 492.12 L187.78 492.12 L187.78 464.2 A7.82399 13.9621 -180 0 0 179.95 450.24 L7.82 450.24 A7.82399
								 13.9621 -180 0 0 0 464.2 L0 492.12 Z" class="st10"/>
				</g>
				<g id="shape2969-19">
					<title>Sheet.2969</title>
					<path d="M0 379.83 L0 485.52 A7.824 6.60565 -180 0 0 7.82 492.12 L179.95 492.12 A7.824 6.60565 -180 0 0 187.78
								 485.52 L187.78 379.83 L0 379.83 Z" class="st10"/>
				</g>
			</g>
			<g id="shape2971-21" transform="translate(0,-112.298)">
				<title>Virtual server.16</title>
				<desc>ziti CLI</desc>
				<rect x="0" y="459.287" width="216.668" height="32.8378" class="st11"/>
				<text x="65.49" y="482.91" class="st12">ziti CLI</text>			</g>
		</g>
		<g id="group3194-24" transform="translate(129.213,-93.4088)">
			<title>SDKs</title>
			<g id="group3195-25">
				<title>CloudKit-Icon</title>
				<g id="group3196-26">
					<title>Bottom</title>
					<g id="shape3197-27">
						<title>Sheet.3197</title>
						<path d="M73.32 469.4 C79.04 464.94 79.04 457.73 73.32 453.27 L49.86 435.03 C44.14 430.57 34.88 430.57 29.16
									 435.03 L5.72 453.27 C0 457.73 0 464.94 5.72 469.4 L29.16 487.67 C34.88 492.12 44.14 492.12 49.86
									 487.67 L73.32 469.4 Z" class="st13"/>
					</g>
					<g id="shape3198-29">
						<title>Sheet.3198</title>
						<path d="M73.32 469.4 C79.04 464.94 79.04 457.73 73.32 453.27 L49.86 435.03 C44.14 430.57 34.88 430.57 29.16
									 435.03 L5.72 453.27 C0 457.73 0 464.94 5.72 469.4 L29.16 487.67 C34.88 492.12 44.14 492.12 49.86
									 487.67 L73.32 469.4 Z" class="st14"/>
					</g>
				</g>
				<g id="group3199-31" transform="translate(0,-12.6993)">
					<title>Middle</title>
					<g id="shape3200-32">
						<title>Sheet.3200</title>
						<path d="M73.32 469.4 C79.04 464.94 79.04 457.73 73.32 453.27 L49.88 435.01 C44.16 430.55 34.9 430.55 29.18
									 435.01 L5.72 453.27 C0 457.73 0 464.94 5.72 469.4 L29.16 487.67 C34.88 492.12 44.14 492.12 49.86
									 487.67 L73.32 469.4 Z" class="st15"/>
					</g>
					<g id="shape3201-34">
						<title>Sheet.3201</title>
						<path d="M73.32 469.4 C79.04 464.94 79.04 457.73 73.32 453.27 L49.88 435.01 C44.16 430.55 34.9 430.55 29.18
									 435.01 L5.72 453.27 C0 457.73 0 464.94 5.72 469.4 L29.16 487.67 C34.88 492.12 44.14 492.12 49.86
									 487.67 L73.32 469.4 Z" class="st16"/>
					</g>
				</g>
				<g id="group3202-36" transform="translate(0,-25.3986)">
					<title>Top</title>
					<g id="shape3203-37">
						<title>Sheet.3203</title>
						<path d="M73.32 469.4 C79.04 464.94 79.04 457.73 73.32 453.27 L49.88 435.01 C44.16 430.55 34.9 430.55 29.18
									 435.01 L5.72 453.27 C0 457.73 0 464.94 5.72 469.4 L29.16 487.67 C34.88 492.12 44.14 492.12 49.86
									 487.67 L73.32 469.4 Z" class="st17"/>
					</g>
					<g id="shape3204-39">
						<title>Sheet.3204</title>
						<path d="M73.32 469.4 C79.04 464.94 79.04 457.73 73.32 453.27 L49.88 435.01 C44.16 430.55 34.9 430.55 29.18
									 435.01 L5.72 453.27 C0 457.73 0 464.94 5.72 469.4 L29.16 487.67 C34.88 492.12 44.14 492.12 49.86
									 487.67 L73.32 469.4 Z" class="st18"/>
					</g>
				</g>
			</g>
			<g id="shape3205-41" transform="translate(25.6871,-34.749)">
				<title>Sheet.3205</title>
				<path d="M14.24 447.08 L0 468.76 L8.09 474.04 L9.43 471.99 L13.64 492.12 L27.66 470.36 L19.79 465.22 L18.46 467.29
							 L14.24 447.08 ZM20.62 468.83 L24.06 471.17 L14.84 485.3 L10.61 465.11 L7.21 470.36 L3.8 468.14 L13.06
							 453.97 L17.25 473.97 L20.62 468.83 Z" class="st19"/>
			</g>
		</g>
		<g id="shape3108-43" transform="translate(878.136,-55.5025)">
			<title>Rounded Rectangle.3108</title>
			<desc>Docker</desc>
			<path d="M6.35 492.12 L303.52 492.12 A6.34566 6.34566 -180 0 0 309.86 485.78 L309.86 93.73 A6.34566 6.34566 -180 0 0
						 303.52 87.38 L6.35 87.38 A6.34566 6.34566 -180 0 0 0 93.73 L0 485.78 A6.34566 6.34566 -180 0 0 6.35 492.12
						 Z" class="st20"/>
			<text x="4" y="123.78" class="st8">Docker</text>		</g>
		<g id="group3311-46" transform="translate(531,-18.9947)">
			<title>Sheet.3311</title>
			<g id="shape3309-47" transform="translate(2.51634,-7.57005)">
				<title>Sheet.3309</title>
				<rect x="0" y="451.625" width="186.484" height="40.5" class="st21"/>
			</g>
			<g id="shape3310-49">
				<title>Sheet.3310</title>
				<desc>Network</desc>
				<rect x="0" y="434.235" width="188.441" height="57.8901" class="st22"/>
				<text x="15.25" y="477.33" class="st23">Network</text>			</g>
		</g>
		<g id="shape3278-52" transform="translate(206.747,-150.738)">
			<title>Dynamic connector.3278</title>
			<path d="M0 492.12 L625.75 473.33" class="st24"/>
		</g>
		<g id="group3444-55" transform="translate(141.577,-116.375)">
			<title>Sheet.3444</title>
		</g>
		<g id="group3395-56" transform="translate(252,-131.875)">
			<title>Sheet.3395</title>
			<g id="shape3388-57">
				<title>Empty Circle</title>
				<ellipse cx="29.6894" cy="462.436" rx="29.6894" ry="29.6894" class="st25"/>
			</g>
			<g id="group3389-59" transform="translate(10.4173,-9.72283)">
				<title>e2ee</title>
				<g id="group3390-60" transform="translate(20.1222,-14.3647)">
					<title>Sheet.3390</title>
					<g id="shape3391-61">
						<title>Sheet.3391</title>
					</g>
				</g>
				<g id="group3392-62">
					<title>Sheet.3392</title>
					<g id="shape3393-63">
						<title>Sheet.3393</title>
						<path d="M32.21 465.76 L32.21 459.54 C32.21 452.63 26.86 446.76 19.95 446.5 C12.7 446.21 6.71 452.05 6.71
									 459.25 L6.71 465.78 L0.55 465.78 C0.26 465.78 0 466.02 0 466.33 L0 491.58 C0 491.87 0.23 492.12
									 0.55 492.12 L14.62 492.12 C14.91 492.12 15.17 491.89 15.17 491.58 L15.17 488.07 C15.17 487.78
									 14.94 487.52 14.62 487.52 L5.58 487.52 L5.58 480.73 L13.96 480.73 C14.25 480.73 14.51 480.5
									 14.51 480.18 L14.51 476.7 C14.51 476.41 14.28 476.15 13.96 476.15 L5.58 476.15 L5.58 470.36
									 L14.62 470.36 C14.91 470.36 15.17 470.13 15.17 469.82 L15.17 466.33 C15.17 466.04 14.94 465.78
									 14.62 465.78 L11.2 465.78 L11.2 459.48 C11.2 455.19 14.36 451.42 18.65 451.02 C23.55 450.56
									 27.69 454.41 27.69 459.22 L27.69 465.76 L24.27 465.76 C23.98 465.76 23.72 465.99 23.72 466.3
									 L23.72 469.79 C23.72 470.07 23.95 470.33 24.27 470.33 L33.31 470.33 L33.31 476.12 L24.93 476.12
									 C24.64 476.12 24.38 476.35 24.38 476.67 L24.38 480.15 C24.38 480.44 24.61 480.7 24.93 480.7
									 L33.31 480.7 L33.31 487.49 L24.27 487.49 C23.98 487.49 23.72 487.72 23.72 488.04 L23.72 491.55
									 C23.72 491.84 23.95 492.1 24.27 492.1 L38.34 492.1 C38.63 492.1 38.89 491.87 38.89 491.55 L38.89
									 466.3 C38.89 466.02 38.66 465.76 38.34 465.76 C38.34 465.76 32.21 465.76 32.21 465.76 Z"
								class="st26"/>
					</g>
					<g id="shape3394-67" transform="translate(17.1859,-11.4285)">
						<title>Sheet.3394</title>
						<path d="M0.52 492.12 L4.06 492.12 C4.35 492.12 4.58 491.89 4.58 491.61 L4.58 488.07 C4.58 487.78 4.35 487.55
									 4.06 487.55 L0.52 487.55 C0.23 487.55 0 487.78 0 488.07 L0 491.61 C0 491.89 0.23 492.12 0.52
									 492.12 Z" class="st26"/>
					</g>
				</g>
			</g>
		</g>
		<g id="shape3472-70" transform="translate(889.568,-268.013)">
			<title>Rounded Rectangle.3472</title>
			<desc>Controller</desc>
			<path d="M5.6 492.12 L268.08 492.12 A5.6047 5.6047 -180 0 0 273.68 486.52 L273.68 359.5 A5.6047 5.6047 -180 0 0 268.08
						 353.89 L5.6 353.89 A5.6047 5.6047 -180 0 0 -0 359.5 L0 486.52 A5.6047 5.6047 -180 0 0 5.6 492.12 Z"
					class="st27"/>
			<text x="44.14" y="390.29" class="st8">Controller</text>		</g>
		<g id="group3365-73" transform="translate(841.474,-286.013)">
			<title>Controller w/Circle</title>
			<g id="shape3366-74">
				<title>Sheet.3366</title>
				<ellipse cx="48.0938" cy="444.031" rx="48.0937" ry="48.0937" class="st25"/>
			</g>
			<g id="group3367-76" transform="translate(11.1797,-7.51789)">
				<title>Controller</title>
				<g id="group3368-77">
					<title>Sheet.3368</title>
					<g id="shape3369-78" transform="translate(0,-45.0363)">
						<title>Sheet.3369</title>
						<path d="M70.76 478.12 C68.44 474.35 64.78 471.75 60.49 470.73 C59.24 470.45 57.98 470.3 56.72 470.3 C54.28
									 470.3 51.92 470.81 49.76 471.83 C46.22 460.11 34.34 452.63 22.03 454.88 C8.81 457.32 0 470.02
									 2.44 483.28 C2.79 485.16 3.34 487.01 4.13 488.74 C4.56 489.73 5.74 490.2 6.73 489.73 C7.71 489.29
									 8.18 488.11 7.71 487.13 C7.08 485.67 6.57 484.14 6.29 482.53 C4.25 471.44 11.64 460.74 22.73
									 458.73 C33.83 456.69 44.53 464.08 46.53 475.17 C46.65 475.84 47.08 476.39 47.71 476.63 C48.34
									 476.86 49.05 476.82 49.6 476.43 C51.72 474.98 54.16 474.19 56.76 474.19 C57.7 474.19 58.68 474.31
									 59.63 474.54 C62.89 475.33 65.69 477.34 67.46 480.21 C69.23 483.08 69.78 486.46 68.99 489.73
									 C68.75 490.79 69.38 491.85 70.45 492.09 C70.6 492.12 70.76 492.12 70.92 492.12 C71.82 492.12
									 72.61 491.5 72.84 490.59 C73.83 486.3 73.12 481.9 70.76 478.12 Z" class="st28"/>
					</g>
					<g id="shape3370-82" transform="translate(11.6819,5.68434E-14)">
						<title>Sheet.3370</title>
						<path d="M42.68 439.42 L10.03 439.42 C4.48 439.42 0 443.9 0 449.45 L0 482.1 C0 487.64 4.48 492.12 10.03 492.12
									 L42.68 492.12 C48.22 492.12 52.71 487.64 52.71 482.1 L52.71 449.45 C52.71 443.94 48.22 439.42
									 42.68 439.42 ZM48.77 482.1 C48.77 485.48 46.02 488.19 42.68 488.19 L10.03 488.19 C6.65 488.19
									 3.93 485.44 3.93 482.1 L3.93 449.45 C3.93 446.07 6.69 443.35 10.03 443.35 L42.68 443.35 C46.06
									 443.35 48.77 446.11 48.77 449.45 L48.77 482.1 Z" class="st29"/>
					</g>
					<g id="shape3371-86" transform="translate(21.3972,-11.3672)">
						<title>Sheet.3371</title>
						<path d="M31.27 483.31 L19.94 483.31 C19.63 482.25 19.04 481.27 18.21 480.44 C16.91 479.15 15.22 478.44 13.37
									 478.44 C10.27 478.44 7.67 480.48 6.8 483.31 L1.97 483.31 C0.87 483.31 0 484.18 0 485.28 C0 486.38
									 0.87 487.25 1.97 487.25 L6.8 487.25 C7.67 490.08 10.27 492.12 13.37 492.12 C16.48 492.12 19.08
									 490.08 19.94 487.25 L31.27 487.25 C32.37 487.25 33.24 486.38 33.24 485.28 C33.24 484.18 32.37
									 483.31 31.27 483.31 ZM13.41 488.19 C11.8 488.19 10.5 486.89 10.5 485.28 C10.5 483.67 11.8 482.37
									 13.41 482.37 C14.2 482.37 14.91 482.69 15.46 483.24 C16.01 483.79 16.32 484.53 16.32 485.28
									 C16.32 486.89 14.99 488.19 13.41 488.19 Z" class="st30"/>
					</g>
					<g id="shape3372-90" transform="translate(21.4365,-27.6511)">
						<title>Sheet.3372</title>
						<path d="M26.35 478.44 C23.25 478.44 20.65 480.48 19.78 483.31 L1.97 483.31 C0.87 483.31 0 484.18 0 485.28
									 C0 486.38 0.87 487.25 1.97 487.25 L19.78 487.25 C20.65 490.08 23.25 492.12 26.35 492.12 C30.13
									 492.12 33.2 489.06 33.2 485.28 C33.2 481.51 30.13 478.44 26.35 478.44 ZM26.35 488.19 C24.74
									 488.19 23.44 486.89 23.44 485.28 C23.44 483.67 24.74 482.37 26.35 482.37 C27.97 482.37 29.26
									 483.67 29.26 485.28 C29.26 486.89 27.97 488.19 26.35 488.19 Z" class="st31"/>
					</g>
				</g>
			</g>
		</g>
		<g id="shape3473-94" transform="translate(889.568,-108.896)">
			<title>Rounded Rectangle.3473</title>
			<desc>Router</desc>
			<path d="M5.6 492.12 L268.08 492.12 A5.6047 5.6047 -180 0 0 273.68 486.52 L273.68 359.5 A5.6047 5.6047 -180 0 0 268.08
						 353.89 L5.6 353.89 A5.6047 5.6047 -180 0 0 -0 359.5 L0 486.52 A5.6047 5.6047 -180 0 0 5.6 492.12 Z"
					class="st27"/>
			<text x="74.02" y="390.29" class="st8">Router</text>		</g>
		<g id="group3304-97" transform="translate(832.491,-127.037)">
			<title>Sheet.3304</title>
			<g id="group3248-98" transform="translate(10.6875,5.68434E-14)">
				<title>Sheet.3248</title>
				<g id="shape3224-99">
					<title>Sheet.3224</title>
					<ellipse cx="48.0938" cy="444.031" rx="48.0937" ry="48.0937" class="st25"/>
				</g>
				<g id="group3237-101" transform="translate(12.0937,-12.9375)">
					<title>Router Colored</title>
					<g id="group3238-102" transform="translate(38.5398,-28.4211)">
						<title>Sheet.3238</title>
						<g id="shape3239-103">
							<title>Sheet.3239</title>
						</g>
					</g>
					<g id="group3240-104">
						<title>Sheet.3240</title>
						<g id="shape3241-105" transform="translate(26.4054,-24.3494)">
							<title>Sheet.3241</title>
							<path d="M20.64 483.01 C21.12 481.56 21.12 480.15 21.12 477.73 L21.12 474.87 C21.12 472.45 21.12 471.04
										 19.67 469.59 C18.22 468.62 16.81 468.14 14.39 468.14 L0 468.14 L0 492.12 L6.73 492.12 L6.73
										 484.91 L11.53 484.91 L15.36 492.12 L21.61 492.12 L17.29 484.91 C18.71 484.43 19.67 484.43
										 20.64 483.01 ZM15.36 476.77 C15.36 478.22 14.88 479.63 13.42 479.63 L6.69 479.63 L6.69 472.41
										 L12.94 472.41 C14.39 472.41 15.36 473.38 15.36 474.83 L15.36 476.77 Z" class="st32"/>
						</g>
						<g id="shape3242-109" transform="translate(11.2072,-11.0862)">
							<title>Sheet.3242</title>
							<path d="M49.59 467.33 C49.59 453.67 38.46 442.54 24.79 442.54 C11.13 442.54 0 453.67 0 467.33 C0 481
										 11.13 492.12 24.79 492.12 C38.46 492.12 49.59 481 49.59 467.33 ZM24.79 488.62 C13.06 488.62
										 3.51 479.06 3.51 467.33 C3.51 455.6 13.06 446.05 24.79 446.05 C36.52 446.05 46.08 455.6
										 46.08 467.33 C46.08 479.06 36.52 488.62 24.79 488.62 Z" class="st32"/>
						</g>
						<g id="shape3243-112" transform="translate(36.6047,-36.5644)">
							<title>Sheet.3243</title>
							<path d="M1.69 464.79 C15.24 465.68 26.53 477.01 27.41 490.51 C27.49 491.44 28.26 492.12 29.15 492.12
										 C29.19 492.12 29.23 492.12 29.27 492.12 C30.24 492.04 30.96 491.24 30.88 490.27 C30.15 479.35
										 23.42 469.71 14.07 464.75 L24.95 464.75 L23.62 466.08 C22.94 466.77 22.94 467.86 23.62 468.54
										 C23.95 468.86 24.43 469.07 24.87 469.07 C25.32 469.07 25.76 468.9 26.12 468.54 L30.44 464.23
										 C31.12 463.54 31.12 462.45 30.44 461.77 L26.12 457.46 C25.44 456.77 24.35 456.77 23.66 457.46
										 C22.98 458.14 22.98 459.23 23.66 459.91 L24.99 461.24 L1.81 461.24 C0.89 461.24 0.08 462.01
										 0.08 462.94 C0 463.95 0.73 464.71 1.69 464.79 Z" class="st32"/>
						</g>
						<g id="shape3244-115" transform="translate(0,-36.5644)">
							<title>Sheet.3244</title>
							<path d="M4.47 490.39 C4.47 491.32 5.24 492.12 6.17 492.12 L6.21 492.12 C7.14 492.12 7.9 491.4 7.94 490.51
										 C8.83 476.97 20.16 465.68 33.66 464.79 C34.63 464.71 35.35 463.91 35.27 462.94 C35.19 461.97
										 34.39 461.24 33.42 461.33 C22.49 462.05 12.86 468.78 7.9 478.14 L7.9 467.25 L9.23 468.58
										 C9.55 468.9 10.04 469.11 10.48 469.11 C10.92 469.11 11.37 468.94 11.73 468.58 C12.42 467.9
										 12.42 466.81 11.73 466.12 L7.46 461.81 C6.77 461.12 5.68 461.12 5 461.81 L0.69 466.12 C0
										 466.81 0 467.9 0.69 468.58 C1.37 469.27 2.46 469.27 3.14 468.58 L4.47 467.25 L4.47 490.39
										 Z" class="st32"/>
						</g>
						<g id="shape3245-118" transform="translate(4.31355,5.68434E-14)">
							<title>Sheet.3245</title>
							<path d="M29.39 484.26 C15.84 483.38 4.56 472.05 3.67 458.54 C3.59 457.58 2.78 456.85 1.81 456.93 C0.85
										 457.01 0.12 457.82 0.2 458.79 C0.93 469.71 7.66 479.35 17.01 484.3 L6.13 484.3 L7.46 482.97
										 C8.14 482.29 8.14 481.2 7.46 480.51 C6.77 479.83 5.68 479.83 5 480.51 L0.69 484.83 C0 485.51
										 0 486.6 0.69 487.29 L5 491.6 C5.32 491.92 5.81 492.12 6.25 492.12 C6.69 492.12 7.14 491.96
										 7.5 491.6 C8.18 490.92 8.18 489.83 7.5 489.14 L6.17 487.81 L29.27 487.81 C30.19 487.81 31
										 487.05 31 486.12 C31.08 485.11 30.36 484.34 29.39 484.26 Z" class="st32"/>
						</g>
						<g id="shape3246-121" transform="translate(36.645,-4.35386)">
							<title>Sheet.3246</title>
							<path d="M34.67 484.83 C33.98 484.14 32.9 484.14 32.21 484.83 L30.88 486.16 L30.88 463.02 C30.88 462.09
										 30.11 461.29 29.19 461.29 L29.15 461.29 C28.22 461.29 27.45 462.01 27.41 462.9 C26.53 476.44
										 15.2 487.73 1.69 488.62 C0.73 488.7 0 489.5 0.08 490.47 C0.16 491.4 0.93 492.08 1.81 492.08
										 C1.85 492.08 1.89 492.08 1.94 492.08 C12.86 491.36 22.49 484.63 27.45 475.27 L27.45 486.16
										 L26.12 484.83 C25.44 484.14 24.35 484.14 23.66 484.83 C22.98 485.51 22.98 486.6 23.66 487.29
										 L27.98 491.6 C28.3 491.92 28.78 492.12 29.23 492.12 C29.67 492.12 30.11 491.96 30.48 491.6
										 L34.79 487.29 C35.35 486.6 35.35 485.47 34.67 484.83 Z" class="st32"/>
						</g>
					</g>
				</g>
			</g>
			<g id="shape3287-124" transform="translate(99,-34.3125)">
				<title>Sheet.3287</title>
				<ellipse cx="8.4375" cy="483.688" rx="8.4375" ry="8.4375" class="st33"/>
			</g>
			<g id="shape3293-128" transform="translate(89.4375,-69.1875)">
				<title>Sheet.3293</title>
				<ellipse cx="8.4375" cy="483.688" rx="8.4375" ry="8.4375" class="st33"/>
			</g>
			<g id="shape3279-131" transform="translate(0,-34.3125)">
				<title>Sheet.3279</title>
				<ellipse cx="8.4375" cy="483.688" rx="8.4375" ry="8.4375" class="st33"/>
			</g>
		</g>
	</g>
</svg>
